<!DOCTYPE svg PUBLIC "-//W3C//DTD SVG 20010904//EN"
 "http://www.w3.org/TR/2001/REC-SVG-20010904/DTD/svg10.dtd">
<svg id="logo" version="1.0" xmlns="http://www.w3.org/2000/svg" viewBox="0 0 1024.000000 1024.000000"
 preserveAspectRatio="xMidYMid meet">

<g transform="translate(0.000000,1024.000000) scale(0.100000,-0.100000)"
fill="#000000" stroke="none">
<path d="M7708 6888 c-4 -10 -23 -17 -55 -20 -7 -1 -13 -5 -13 -9 0 -3 -21
-10 -47 -14 -26 -4 -65 -15 -88 -25 -22 -9 -51 -18 -64 -18 -13 -1 -27 -5 -30
-9 -3 -4 -14 -9 -23 -11 -9 -1 -30 -9 -45 -17 -15 -8 -33 -15 -39 -15 -6 0
-17 -7 -24 -15 -7 -8 -20 -15 -29 -15 -26 0 -126 -68 -192 -131 -16 -15 -30
-25 -32 -23 -5 5 -153 -138 -151 -146 2 -6 -136 -160 -236 -262 -100 -103
-222 -235 -257 -278 -15 -19 -46 -54 -68 -77 -22 -23 -44 -48 -50 -55 -52 -70
-264 -269 -299 -282 -19 -7 -19 -6 -2 13 11 12 15 25 10 32 -4 7 -7 204 -7
438 1 234 -3 408 -7 386 -7 -37 -7 -36 -9 23 0 34 -5 62 -11 62 -5 0 -10 8
-10 19 0 10 -7 24 -15 31 -8 7 -13 16 -10 20 2 4 -4 15 -15 25 -11 10 -20 23
-20 28 0 11 -91 96 -102 97 -4 0 -31 15 -60 34 -29 18 -70 39 -90 45 -69 23
-191 32 -260 21 -33 -5 -48 -4 -48 4 0 6 -4 4 -10 -4 -5 -8 -12 -11 -16 -7 -4
4 -13 2 -20 -3 -6 -6 -29 -12 -50 -14 -21 -1 -40 -8 -42 -14 -2 -7 -10 -12
-18 -12 -8 0 -14 -5 -14 -11 0 -5 -4 -8 -8 -5 -11 6 -100 -36 -129 -60 -38
-33 -57 -49 -83 -65 -31 -21 -75 -59 -67 -59 3 0 -12 -17 -33 -38 -21 -22 -41
-49 -44 -60 -4 -12 -12 -22 -17 -22 -5 0 -9 -7 -9 -16 0 -8 -4 -13 -9 -10 -4
3 -13 -6 -19 -19 -7 -14 -16 -25 -22 -25 -6 0 -9 -4 -6 -9 3 -5 0 -11 -8 -14
-8 -3 -21 -18 -29 -34 -8 -15 -29 -55 -47 -88 -17 -33 -38 -67 -45 -75 -8 -8
-37 -60 -65 -115 -29 -55 -56 -104 -61 -109 -5 -6 -9 -17 -9 -25 0 -8 -11 -29
-25 -47 -14 -18 -25 -38 -25 -44 0 -6 -10 -27 -23 -48 -32 -51 -68 -131 -70
-154 -2 -23 -26 -20 -38 5 -5 9 -13 25 -18 35 -90 173 -125 245 -127 259 -2 9
-8 27 -13 40 -6 13 -15 33 -20 46 -45 107 -76 176 -97 214 -13 25 -24 51 -24
56 0 6 -11 25 -25 43 -14 18 -25 38 -25 44 0 6 -16 41 -35 78 -46 87 -115 199
-115 188 0 -5 -9 -1 -20 9 -11 10 -20 24 -20 32 0 7 -7 13 -15 13 -8 0 -15 5
-15 10 0 6 -4 10 -9 10 -5 0 -26 16 -46 35 -21 19 -41 33 -45 32 -5 -1 -16 7
-25 18 -9 11 -13 14 -9 6 4 -9 2 -12 -7 -8 -8 3 -33 11 -56 18 -24 6 -43 15
-43 19 0 10 -47 21 -92 22 -18 0 -38 5 -44 9 -14 12 -264 5 -273 -7 -3 -5 -19
-11 -36 -13 -16 -1 -32 -6 -35 -10 -3 -3 -24 -19 -48 -34 -84 -54 -126 -109
-170 -219 -34 -85 -37 -190 -37 -1403 l0 -1200 22 -41 c28 -52 76 -99 130
-125 37 -18 58 -20 136 -17 87 3 96 6 157 43 69 43 121 103 142 163 10 29 13
244 14 1007 2 988 5 1100 40 1135 18 18 36 8 76 -41 34 -42 134 -262 299 -659
109 -260 213 -477 268 -559 48 -70 84 -99 163 -134 72 -32 172 -31 270 2 115
39 154 95 298 436 218 517 263 611 361 757 122 181 211 293 233 293 50 0 50 5
56 -1145 5 -892 8 -1072 20 -1105 16 -43 100 -135 123 -135 8 0 20 -6 26 -14
7 -8 23 -13 37 -10 14 3 23 1 20 -5 -3 -5 4 -11 17 -15 34 -9 99 -7 93 3 -3 5
16 12 42 16 67 9 127 41 160 83 59 77 57 59 62 569 5 457 6 473 25 487 27 21
102 19 150 -3 68 -31 165 -145 403 -471 34 -47 90 -123 124 -169 59 -79 100
-136 123 -173 47 -73 217 -298 280 -369 39 -44 112 -96 148 -105 15 -3 27 -11
27 -16 0 -6 6 -6 14 1 11 9 15 9 19 -1 4 -10 8 -10 16 2 7 9 11 10 11 3 0 -12
7 -13 63 -14 15 -1 27 -6 27 -13 0 -6 5 -4 10 4 7 11 12 12 21 3 9 -9 16 -9
31 0 13 9 21 9 26 1 4 -6 14 -11 22 -12 8 0 60 -2 115 -5 55 -3 122 -1 149 4
70 13 186 68 186 88 0 9 -23 41 -51 71 -29 30 -86 98 -127 150 -42 52 -94 114
-116 138 -22 23 -36 42 -31 42 6 0 5 4 -1 8 -6 4 -24 27 -41 52 -17 25 -43 56
-57 69 -14 14 -26 30 -26 37 0 6 -11 22 -25 35 -14 13 -32 38 -41 55 -8 17
-26 37 -39 44 -14 7 -25 17 -25 22 0 4 -13 21 -30 36 -16 16 -30 33 -30 38 0
5 -8 17 -17 26 -10 8 -27 28 -38 43 -11 15 -35 43 -52 62 -18 19 -33 37 -33
40 0 3 -10 16 -22 29 -13 12 -58 60 -100 106 -142 152 -191 201 -333 327 -11
9 -58 49 -105 87 -47 38 -90 73 -96 79 -22 21 -9 48 45 92 78 62 331 304 331
315 0 5 17 26 38 46 20 20 45 49 54 63 9 14 34 46 55 71 21 24 48 57 61 73 12
17 52 68 88 115 37 47 92 120 123 164 31 43 72 100 91 126 19 26 84 115 143
196 159 220 180 246 235 296 53 47 66 88 29 88 -10 0 -26 4 -35 9 -33 16 -70
21 -74 9z"/>
<path d="M4260 5609 c0 -5 5 -7 10 -4 6 3 10 8 10 11 0 2 -4 4 -10 4 -5 0 -10
-5 -10 -11z"/>
<path d="M7428 3513 c6 -2 18 -2 25 0 6 3 1 5 -13 5 -14 0 -19 -2 -12 -5z"/>
</g>
</svg>
